STARTFONT 2.1
FONT -B&H-Lucida Sans Typewriter-Bold-R-Normal-Sans-24-240-72-72-M-145-ISO8859-1
SIZE 24 72 72
FONTBOUNDINGBOX 15 27 0 -5

STARTPROPERTIES 22
FONTNAME_REGISTRY "-"
FOUNDRY "B&H"
FAMILY_NAME "Lucida Sans Typewriter"
WEIGHT_NAME "Bold"
SLANT "R"
SETWIDTH_NAME "Normal"
ADD_STYLE_NAME "Sans"
SPACING "M"
CHARSET_REGISTRY "ISO8859"
CHARSET_ENCODING "1"
PIXEL_SIZE 24
POINT_SIZE 240
RESOLUTION_X 72
RESOLUTION_Y 72
AVERAGE_WIDTH 145
FULL_NAME "LucidaSans-TypewriterBold"
WEIGHT 10
X_HEIGHT 13
QUAD_WIDTH 14
DEFAULT_CHAR 32
FONT_DESCENT 6
FONT_ASCENT 22
ENDPROPERTIES

CHARS 149

STARTCHAR space
ENCODING 32
SWIDTH 602 0
DWIDTH 14 0
BBX 1 1 0 0
BITMAP
00
ENDCHAR

STARTCHAR exclam
ENCODING 33
SWIDTH 602 0
DWIDTH 14 0
BBX 3 17 6 0
BITMAP
E0
E0
E0
E0
E0
E0
E0
E0
60
60
60
60
00
00
00
E0
E0
ENDCHAR

STARTCHAR quotedbl
ENCODING 34
SWIDTH 602 0
DWIDTH 14 0
BBX 9 7 3 11
BITMAP
E380
E380
E380
E380
C300
C300
C300
ENDCHAR

STARTCHAR numbersign
ENCODING 35
SWIDTH 602 0
DWIDTH 14 0
BBX 13 17 1 0
BITMAP
0630
0660
0660
0C40
7FF8
7FF0
08C0
1980
1980
FFF0
FFE0
3100
3300
3300
2300
6200
6600
ENDCHAR

STARTCHAR dollar
ENCODING 36
SWIDTH 602 0
DWIDTH 14 0
BBX 9 21 3 -2
BITMAP
0C00
0C00
3F00
7F00
E500
C400
C400
F400
7C00
3E00
1F00
0F00
0B80
0980
0980
0980
8B80
FF00
7E00
0C00
0C00
ENDCHAR

STARTCHAR percent
ENCODING 37
SWIDTH 602 0
DWIDTH 14 0
BBX 15 17 0 0
BITMAP
3818
7C30
C630
C660
C640
C6C0
C680
7D80
3938
037C
02C6
06C6
04C6
0CC6
18C6
187C
3038
ENDCHAR

STARTCHAR ampersand
ENCODING 38
SWIDTH 602 0
DWIDTH 14 0
BBX 13 17 1 0
BITMAP
0F00
1F80
39C0
39C0
3FC0
3F80
1F98
1E18
7E18
6718
E798
E3F0
E3F0
E1E0
71E0
7FF0
1E78
ENDCHAR

STARTCHAR quoteright
ENCODING 39
SWIDTH 602 0
DWIDTH 14 0
BBX 3 6 6 12
BITMAP
E0
E0
E0
60
60
C0
ENDCHAR

STARTCHAR parenleft
ENCODING 40
SWIDTH 602 0
DWIDTH 14 0
BBX 9 22 4 -4
BITMAP
0180
0780
1E00
3C00
3800
7000
7000
E000
E000
E000
E000
E000
E000
E000
E000
7000
7000
3800
3C00
1E00
0780
0180
ENDCHAR

STARTCHAR parenright
ENCODING 41
SWIDTH 602 0
DWIDTH 14 0
BBX 9 22 2 -4
BITMAP
C000
F000
3C00
1E00
0E00
0700
0700
0380
0380
0380
0380
0380
0380
0380
0380
0700
0700
0E00
1E00
3C00
F000
C000
ENDCHAR

STARTCHAR asterisk
ENCODING 42
SWIDTH 602 0
DWIDTH 14 0
BBX 11 10 2 7
BITMAP
0E00
0E00
4440
F1E0
F1E0
0000
1B00
3B80
79C0
1100
ENDCHAR

STARTCHAR plus
ENCODING 43
SWIDTH 602 0
DWIDTH 14 0
BBX 12 13 1 0
BITMAP
0600
0600
0600
0600
0600
0600
FFF0
FFF0
0600
0600
0600
0600
0600
ENDCHAR

STARTCHAR comma
ENCODING 44
SWIDTH 602 0
DWIDTH 14 0
BBX 3 7 6 -4
BITMAP
E0
E0
E0
60
60
60
C0
ENDCHAR

STARTCHAR hyphen
ENCODING 45
SWIDTH 602 0
DWIDTH 14 0
BBX 10 2 2 6
BITMAP
FFC0
FFC0
ENDCHAR

STARTCHAR period
ENCODING 46
SWIDTH 602 0
DWIDTH 14 0
BBX 3 3 6 0
BITMAP
E0
E0
E0
ENDCHAR

STARTCHAR slash
ENCODING 47
SWIDTH 602 0
DWIDTH 14 0
BBX 14 22 0 -4
BITMAP
001C
0018
0038
0030
0070
0060
00E0
00C0
01C0
0180
0380
0300
0700
0600
0C00
0C00
1800
1800
3000
3000
6000
E000
ENDCHAR

STARTCHAR zero
ENCODING 48
SWIDTH 602 0
DWIDTH 14 0
BBX 12 17 1 0
BITMAP
0F00
3FC0
70E0
70E0
6060
E070
E070
E070
E070
E070
E070
E070
6060
70E0
70E0
3FC0
0F00
ENDCHAR

STARTCHAR one
ENCODING 49
SWIDTH 602 0
DWIDTH 14 0
BBX 9 17 3 0
BITMAP
FC00
FC00
1C00
1C00
1C00
1C00
1C00
1C00
1C00
1C00
1C00
1C00
1C00
1C00
1C00
FF80
FF80
ENDCHAR

STARTCHAR two
ENCODING 50
SWIDTH 602 0
DWIDTH 14 0
BBX 10 17 2 0
BITMAP
3E00
7F80
4380
01C0
01C0
01C0
01C0
0380
0700
0E00
1C00
3800
3000
7000
E000
FFC0
FFC0
ENDCHAR

STARTCHAR three
ENCODING 51
SWIDTH 602 0
DWIDTH 14 0
BBX 9 17 3 0
BITMAP
7E00
7F00
4780
0380
0380
0380
0700
3C00
3E00
0700
0380
0380
0380
0380
8700
FF00
FC00
ENDCHAR

STARTCHAR four
ENCODING 52
SWIDTH 602 0
DWIDTH 14 0
BBX 11 17 2 0
BITMAP
0380
0780
0780
0F80
1B80
1B80
3380
7380
6380
E380
FFE0
FFE0
0380
0380
0380
0380
0380
ENDCHAR

STARTCHAR five
ENCODING 53
SWIDTH 602 0
DWIDTH 14 0
BBX 9 17 3 0
BITMAP
FF80
FF80
C000
C000
C000
C000
F000
FC00
0F00
0700
0380
0380
0380
0380
8700
FE00
FC00
ENDCHAR

STARTCHAR six
ENCODING 54
SWIDTH 602 0
DWIDTH 14 0
BBX 11 17 2 0
BITMAP
0FC0
1FC0
3840
7000
7000
E000
E780
FFC0
F1C0
E0E0
E0E0
E0E0
E0E0
60E0
71C0
3FC0
0F00
ENDCHAR

STARTCHAR seven
ENCODING 55
SWIDTH 602 0
DWIDTH 14 0
BBX 10 17 3 0
BITMAP
FFC0
FFC0
01C0
0380
0300
0700
0600
0E00
0C00
1C00
1800
3800
3800
3000
7000
7000
7000
ENDCHAR

STARTCHAR eight
ENCODING 56
SWIDTH 602 0
DWIDTH 14 0
BBX 11 17 2 0
BITMAP
1F00
3F80
71C0
71C0
71C0
7980
3F80
3E00
3F00
7FC0
F7C0
E1E0
E0E0
E0E0
F1C0
7FC0
1F00
ENDCHAR

STARTCHAR nine
ENCODING 57
SWIDTH 602 0
DWIDTH 14 0
BBX 11 17 2 0
BITMAP
1E00
7F80
71C0
E0C0
E0E0
E0E0
E0E0
F1E0
7FE0
3CE0
00E0
00E0
01C0
01C0
4380
7F00
7E00
ENDCHAR

STARTCHAR colon
ENCODING 58
SWIDTH 602 0
DWIDTH 14 0
BBX 3 13 6 0
BITMAP
E0
E0
E0
00
00
00
00
00
00
00
E0
E0
E0
ENDCHAR

STARTCHAR semicolon
ENCODING 59
SWIDTH 602 0
DWIDTH 14 0
BBX 3 17 6 -4
BITMAP
E0
E0
E0
00
00
00
00
00
00
00
E0
E0
E0
60
60
60
C0
ENDCHAR

STARTCHAR less
ENCODING 60
SWIDTH 602 0
DWIDTH 14 0
BBX 13 13 1 0
BITMAP
0008
0038
00F8
03E0
0F80
3E00
F800
3E00
0F80
03E0
00F8
0038
0008
ENDCHAR

STARTCHAR equal
ENCODING 61
SWIDTH 602 0
DWIDTH 14 0
BBX 12 7 1 3
BITMAP
FFF0
FFF0
0000
0000
0000
FFF0
FFF0
ENDCHAR

STARTCHAR greater
ENCODING 62
SWIDTH 602 0
DWIDTH 14 0
BBX 13 13 1 0
BITMAP
8000
E000
F800
3E00
0F80
03E0
00F8
03E0
0F80
3E00
F800
E000
8000
ENDCHAR

STARTCHAR question
ENCODING 63
SWIDTH 602 0
DWIDTH 14 0
BBX 11 17 2 0
BITMAP
7F00
FFC0
C1E0
C0E0
C0E0
01E0
03C0
0700
0E00
1C00
3800
3800
0000
0000
0000
3800
3800
ENDCHAR

STARTCHAR at
ENCODING 64
SWIDTH 602 0
DWIDTH 14 0
BBX 13 17 1 0
BITMAP
07C0
1FE0
3870
7030
63F0
E630
C630
CC30
CC70
CC70
CC70
CCB0
6FB0
6738
3840
3FC0
0F80
ENDCHAR

STARTCHAR A
ENCODING 65
SWIDTH 602 0
DWIDTH 14 0
BBX 14 17 0 0
BITMAP
0380
0780
07C0
07C0
0DC0
0DC0
0CE0
18E0
18E0
18F0
3070
3FF0
3FF0
6038
6038
6038
C01C
ENDCHAR

STARTCHAR B
ENCODING 66
SWIDTH 602 0
DWIDTH 14 0
BBX 11 17 2 0
BITMAP
FF00
FF80
E3C0
E1C0
E1C0
E1C0
E380
FF00
FF00
E3C0
E1C0
E0E0
E0E0
E0E0
E1E0
FFC0
FF80
ENDCHAR

STARTCHAR C
ENCODING 67
SWIDTH 602 0
DWIDTH 14 0
BBX 13 17 1 0
BITMAP
07F8
1FF8
3C18
7800
7000
E000
E000
E000
E000
E000
E000
F000
7000
7800
3C08
1FF8
07F0
ENDCHAR

STARTCHAR D
ENCODING 68
SWIDTH 602 0
DWIDTH 14 0
BBX 12 17 2 0
BITMAP
FF80
FFC0
E3E0
E0E0
E0F0
E070
E070
E070
E070
E070
E070
E070
E0E0
E0E0
E1C0
FFC0
FF00
ENDCHAR

STARTCHAR E
ENCODING 69
SWIDTH 602 0
DWIDTH 14 0
BBX 11 17 2 0
BITMAP
FFC0
FFC0
E000
E000
E000
E000
E000
FF80
FF80
E000
E000
E000
E000
E000
E000
FFE0
FFE0
ENDCHAR

STARTCHAR F
ENCODING 70
SWIDTH 602 0
DWIDTH 14 0
BBX 11 17 3 0
BITMAP
FFE0
FFE0
E000
E000
E000
E000
E000
FFC0
FFC0
E000
E000
E000
E000
E000
E000
E000
E000
ENDCHAR

STARTCHAR G
ENCODING 71
SWIDTH 602 0
DWIDTH 14 0
BBX 13 17 1 0
BITMAP
07F8
1FF8
3C08
7800
7000
E000
E000
E000
E000
E038
E038
F038
7038
7838
3C38
1FF8
07F0
ENDCHAR

STARTCHAR H
ENCODING 72
SWIDTH 602 0
DWIDTH 14 0
BBX 12 17 1 0
BITMAP
E070
E070
E070
E070
E070
E070
E070
FFF0
FFF0
E070
E070
E070
E070
E070
E070
E070
E070
ENDCHAR

STARTCHAR I
ENCODING 73
SWIDTH 602 0
DWIDTH 14 0
BBX 11 17 2 0
BITMAP
FFE0
FFE0
0E00
0E00
0E00
0E00
0E00
0E00
0E00
0E00
0E00
0E00
0E00
0E00
0E00
FFE0
FFE0
ENDCHAR

STARTCHAR J
ENCODING 74
SWIDTH 602 0
DWIDTH 14 0
BBX 10 17 2 0
BITMAP
7FC0
7FC0
01C0
01C0
01C0
01C0
01C0
01C0
01C0
01C0
01C0
01C0
01C0
01C0
8380
FF80
FE00
ENDCHAR

STARTCHAR K
ENCODING 75
SWIDTH 602 0
DWIDTH 14 0
BBX 12 17 2 0
BITMAP
E070
E0E0
E1C0
E180
E300
E600
EE00
FC00
FC00
FE00
EF00
E700
E780
E3C0
E1C0
E1E0
E0F0
ENDCHAR

STARTCHAR L
ENCODING 76
SWIDTH 602 0
DWIDTH 14 0
BBX 11 17 3 0
BITMAP
E000
E000
E000
E000
E000
E000
E000
E000
E000
E000
E000
E000
E000
E000
E000
FFE0
FFE0
ENDCHAR

STARTCHAR M
ENCODING 77
SWIDTH 602 0
DWIDTH 14 0
BBX 13 17 1 0
BITMAP
F078
F078
F078
F0F8
F8F8
D8F8
D8F8
D9B8
D9B8
DDB8
CDB8
CD38
CF38
CF38
C738
C638
C038
ENDCHAR

STARTCHAR N
ENCODING 78
SWIDTH 602 0
DWIDTH 14 0
BBX 11 17 2 0
BITMAP
E060
F060
F060
F860
F860
FC60
DC60
DE60
CE60
CF60
C760
C7E0
C3E0
C3E0
C1E0
C0E0
C0E0
ENDCHAR

STARTCHAR O
ENCODING 79
SWIDTH 602 0
DWIDTH 14 0
BBX 13 17 1 0
BITMAP
0F80
3FE0
38E0
7070
6030
E038
E038
E038
E038
E038
E038
E038
6030
7070
38E0
3FE0
0F80
ENDCHAR

STARTCHAR P
ENCODING 80
SWIDTH 602 0
DWIDTH 14 0
BBX 11 17 2 0
BITMAP
FF80
FFC0
E1E0
E0E0
E0E0
E0E0
E1E0
E3C0
FF80
FF00
E000
E000
E000
E000
E000
E000
E000
ENDCHAR

STARTCHAR Q
ENCODING 81
SWIDTH 602 0
DWIDTH 14 0
BBX 14 20 1 -3
BITMAP
0F80
3FE0
38E0
7070
6030
E038
E038
E038
E038
E038
E038
E038
6038
7070
38F0
3FE0
0FC0
01C0
007C
0030
ENDCHAR

STARTCHAR R
ENCODING 82
SWIDTH 602 0
DWIDTH 14 0
BBX 12 17 2 0
BITMAP
FF80
FFC0
E1E0
E0E0
E0E0
E0E0
E1E0
E3C0
FF80
FF00
E700
E780
E380
E1C0
E1C0
E0E0
E0F0
ENDCHAR

STARTCHAR S
ENCODING 83
SWIDTH 602 0
DWIDTH 14 0
BBX 12 17 1 0
BITMAP
1FE0
7FE0
F020
E000
E000
F000
7C00
3F00
1FC0
07E0
01F0
0070
0070
0070
C0E0
FFC0
FF80
ENDCHAR

STARTCHAR T
ENCODING 84
SWIDTH 602 0
DWIDTH 14 0
BBX 13 17 1 0
BITMAP
FFF8
FFF8
0700
0700
0700
0700
0700
0700
0700
0700
0700
0700
0700
0700
0700
0700
0700
ENDCHAR

STARTCHAR U
ENCODING 85
SWIDTH 602 0
DWIDTH 14 0
BBX 11 17 2 0
BITMAP
E060
E060
E060
E060
E060
E060
E060
E060
E060
E060
E060
E060
E060
E060
70C0
7FC0
1F00
ENDCHAR

STARTCHAR V
ENCODING 86
SWIDTH 602 0
DWIDTH 14 0
BBX 14 17 0 0
BITMAP
F00C
7018
7018
7018
3830
3830
3830
3C60
1C60
1C60
1CE0
0EC0
0EC0
0FC0
0780
0780
0780
ENDCHAR

STARTCHAR W
ENCODING 87
SWIDTH 602 0
DWIDTH 14 0
BBX 14 17 0 0
BITMAP
F00C
F18C
F3CC
F3CC
73CC
73DC
73DC
76D8
7ED8
7EF8
7EF8
3CF8
3CF8
3C78
3C70
3870
3870
ENDCHAR

STARTCHAR X
ENCODING 88
SWIDTH 602 0
DWIDTH 14 0
BBX 13 17 0 0
BITMAP
F038
7830
3870
3C60
1CC0
1EC0
0F80
0780
0780
0780
0FC0
1DC0
19E0
38E0
3070
6078
E038
ENDCHAR

STARTCHAR Y
ENCODING 89
SWIDTH 602 0
DWIDTH 14 0
BBX 14 17 0 0
BITMAP
F01C
7018
3830
3830
1C60
1EE0
0EC0
0F80
0780
0700
0700
0700
0700
0700
0700
0700
0700
ENDCHAR

STARTCHAR Z
ENCODING 90
SWIDTH 602 0
DWIDTH 14 0
BBX 12 17 1 0
BITMAP
FFF0
FFF0
00F0
01E0
01C0
03C0
0380
0700
0F00
0E00
1E00
3C00
3800
7800
7000
FFF0
FFF0
ENDCHAR

STARTCHAR bracketleft
ENCODING 91
SWIDTH 602 0
DWIDTH 14 0
BBX 9 22 4 -4
BITMAP
FF80
FF80
E000
E000
E000
E000
E000
E000
E000
E000
E000
E000
E000
E000
E000
E000
E000
E000
E000
E000
FF80
FF80
ENDCHAR

STARTCHAR backslash
ENCODING 92
SWIDTH 602 0
DWIDTH 14 0
BBX 14 22 0 -4
BITMAP
E000
6000
3000
3000
1800
1800
0C00
0C00
0600
0600
0300
0300
0180
0180
00C0
00C0
0060
0060
0030
0030
0018
001C
ENDCHAR

STARTCHAR bracketright
ENCODING 93
SWIDTH 602 0
DWIDTH 14 0
BBX 9 22 1 -4
BITMAP
FF80
FF80
0380
0380
0380
0380
0380
0380
0380
0380
0380
0380
0380
0380
0380
0380
0380
0380
0380
0380
FF80
FF80
ENDCHAR

STARTCHAR asciicircum
ENCODING 94
SWIDTH 602 0
DWIDTH 14 0
BBX 12 14 1 3
BITMAP
0200
0600
0600
0600
0F00
0F00
1980
1980
30C0
30C0
30C0
6060
6060
C030
ENDCHAR

STARTCHAR underscore
ENCODING 95
SWIDTH 602 0
DWIDTH 14 0
BBX 14 2 0 -3
BITMAP
FFFC
FFFC
ENDCHAR

STARTCHAR quoteleft
ENCODING 96
SWIDTH 602 0
DWIDTH 14 0
BBX 3 7 6 11
BITMAP
60
C0
C0
E0
E0
E0
E0
ENDCHAR

STARTCHAR a
ENCODING 97
SWIDTH 602 0
DWIDTH 14 0
BBX 12 13 1 0
BITMAP
3F80
7FC0
41E0
00E0
00E0
1FE0
7FE0
F0E0
E0E0
E0E0
F1E0
7EF0
3C70
ENDCHAR

STARTCHAR b
ENCODING 98
SWIDTH 602 0
DWIDTH 14 0
BBX 12 18 2 0
BITMAP
E000
E000
E000
E000
E000
E780
EFC0
FFE0
F8F0
F070
E070
E070
E070
E070
E0E0
F0E0
FFC0
EF80
ENDCHAR

STARTCHAR c
ENCODING 99
SWIDTH 602 0
DWIDTH 14 0
BBX 12 13 1 0
BITMAP
0FF0
3FF0
7810
7000
E000
E000
E000
E000
E000
7000
7C10
3FF0
0FE0
ENDCHAR

STARTCHAR d
ENCODING 100
SWIDTH 602 0
DWIDTH 14 0
BBX 12 18 1 0
BITMAP
0070
0070
0070
0070
0070
1E70
3F70
70F0
7070
E070
E070
E070
E070
E0F0
F1F0
7FF0
3F70
1E70
ENDCHAR

STARTCHAR e
ENCODING 101
SWIDTH 602 0
DWIDTH 14 0
BBX 12 13 1 0
BITMAP
0F80
3FC0
70E0
6070
E070
FFF0
FFF0
E000
E000
7000
7830
3FF0
0FE0
ENDCHAR

STARTCHAR f
ENCODING 102
SWIDTH 602 0
DWIDTH 14 0
BBX 11 18 3 0
BITMAP
0FE0
1FE0
3820
3800
3800
FFC0
FFC0
3800
3800
3800
3800
3800
3800
3800
3800
3800
3800
3800
ENDCHAR

STARTCHAR g
ENCODING 103
SWIDTH 602 0
DWIDTH 14 0
BBX 12 18 1 -5
BITMAP
1F70
3FF0
70F0
7070
E070
E070
E070
E070
E0F0
F1F0
7FF0
3F70
1E70
0070
0070
60E0
7FC0
3F80
ENDCHAR

STARTCHAR h
ENCODING 104
SWIDTH 602 0
DWIDTH 14 0
BBX 11 18 2 0
BITMAP
E000
E000
E000
E000
E000
E780
EFC0
FFE0
F8E0
E0E0
E0E0
E0E0
E0E0
E0E0
E0E0
E0E0
E0E0
E0E0
ENDCHAR

STARTCHAR i
ENCODING 105
SWIDTH 602 0
DWIDTH 14 0
BBX 8 18 2 0
BITMAP
07
07
07
00
00
FF
FF
07
07
07
07
07
07
07
07
07
07
07
ENDCHAR

STARTCHAR j
ENCODING 106
SWIDTH 602 0
DWIDTH 14 0
BBX 9 23 2 -5
BITMAP
0380
0380
0380
0000
0000
7F80
7F80
0380
0380
0380
0380
0380
0380
0380
0380
0380
0380
0380
0380
0380
8700
FF00
FE00
ENDCHAR

STARTCHAR k
ENCODING 107
SWIDTH 602 0
DWIDTH 14 0
BBX 12 18 2 0
BITMAP
E000
E000
E000
E000
E000
E0E0
E1C0
E380
E300
E600
EE00
FE00
EF00
E780
E380
E3C0
E1E0
E0F0
ENDCHAR

STARTCHAR l
ENCODING 108
SWIDTH 602 0
DWIDTH 14 0
BBX 8 18 1 0
BITMAP
FF
FF
07
07
07
07
07
07
07
07
07
07
07
07
07
07
07
07
ENDCHAR

STARTCHAR m
ENCODING 109
SWIDTH 602 0
DWIDTH 14 0
BBX 13 13 1 0
BITMAP
EE70
DFF8
FFF8
F7B8
E738
E738
E738
E738
E738
E738
E738
E738
E738
ENDCHAR

STARTCHAR n
ENCODING 110
SWIDTH 602 0
DWIDTH 14 0
BBX 11 13 2 0
BITMAP
E780
FFC0
FFE0
F8E0
E0E0
E0E0
E0E0
E0E0
E0E0
E0E0
E0E0
E0E0
E0E0
ENDCHAR

STARTCHAR o
ENCODING 111
SWIDTH 602 0
DWIDTH 14 0
BBX 13 13 1 0
BITMAP
0F80
3FE0
78F0
7070
E038
E038
E038
E038
E038
7070
78F0
3FE0
0F80
ENDCHAR

STARTCHAR p
ENCODING 112
SWIDTH 602 0
DWIDTH 14 0
BBX 12 18 2 -5
BITMAP
E780
EFC0
FFE0
F8F0
F070
E070
E070
E070
E070
E0E0
F0E0
EFC0
E780
E000
E000
E000
E000
E000
ENDCHAR

STARTCHAR q
ENCODING 113
SWIDTH 602 0
DWIDTH 14 0
BBX 12 18 1 -5
BITMAP
1F70
3FF0
70F0
7070
E070
E070
E070
E070
E0F0
F1F0
7FF0
3F70
1E70
0070
0070
0070
0070
0070
ENDCHAR

STARTCHAR r
ENCODING 114
SWIDTH 602 0
DWIDTH 14 0
BBX 10 13 3 0
BITMAP
E7C0
EFC0
FFC0
F8C0
F0C0
E000
E000
E000
E000
E000
E000
E000
E000
ENDCHAR

STARTCHAR s
ENCODING 115
SWIDTH 602 0
DWIDTH 14 0
BBX 11 13 2 0
BITMAP
1FC0
7FC0
F040
F000
F800
7E00
1F80
07E0
01E0
01E0
C1E0
FFC0
7F00
ENDCHAR

STARTCHAR t
ENCODING 116
SWIDTH 602 0
DWIDTH 14 0
BBX 11 16 2 0
BITMAP
1C00
1C00
1C00
FFE0
FFE0
1C00
1C00
1C00
1C00
1C00
1C00
1C00
1C00
1E20
0FE0
07E0
ENDCHAR

STARTCHAR u
ENCODING 117
SWIDTH 602 0
DWIDTH 14 0
BBX 11 13 2 0
BITMAP
E0E0
E0E0
E0E0
E0E0
E0E0
E0E0
E0E0
E0E0
E0E0
E3E0
FFE0
7FE0
3CE0
ENDCHAR

STARTCHAR v
ENCODING 118
SWIDTH 602 0
DWIDTH 14 0
BBX 13 13 1 0
BITMAP
F018
7018
7030
3830
3870
3860
1C60
1CC0
1EC0
0EC0
0F80
0780
0780
ENDCHAR

STARTCHAR w
ENCODING 119
SWIDTH 602 0
DWIDTH 14 0
BBX 14 13 0 0
BITMAP
F00C
F38C
F38C
73DC
73DC
77D8
7EF8
7CF8
7CF8
3CF8
3C78
3870
3870
ENDCHAR

STARTCHAR x
ENCODING 120
SWIDTH 602 0
DWIDTH 14 0
BBX 13 13 1 0
BITMAP
F038
7860
3CE0
1CC0
0F80
0F80
0700
0F80
1FC0
19C0
30E0
70F0
E078
ENDCHAR

STARTCHAR y
ENCODING 121
SWIDTH 602 0
DWIDTH 14 0
BBX 14 18 0 -5
BITMAP
F01C
7018
7838
3830
3C70
1C60
1C60
0EC0
0EC0
0FC0
0780
0780
0300
0300
0600
0E00
7C00
7800
ENDCHAR

STARTCHAR z
ENCODING 122
SWIDTH 602 0
DWIDTH 14 0
BBX 12 13 1 0
BITMAP
FFF0
FFF0
00E0
01C0
03C0
0780
0F00
1E00
3C00
7800
F000
FFF0
FFF0
ENDCHAR

STARTCHAR braceleft
ENCODING 123
SWIDTH 602 0
DWIDTH 14 0
BBX 10 22 3 -4
BITMAP
07C0
0FC0
1C00
1C00
1C00
1C00
0E00
0E00
0E00
1C00
F800
F800
1C00
0E00
0E00
0E00
1E00
1C00
1C00
1C00
0FC0
07C0
ENDCHAR

STARTCHAR bar
ENCODING 124
SWIDTH 602 0
DWIDTH 14 0
BBX 2 22 6 -4
BITMAP
C0
C0
C0
C0
C0
C0
C0
C0
C0
C0
C0
C0
C0
C0
C0
C0
C0
C0
C0
C0
C0
C0
ENDCHAR

STARTCHAR braceright
ENCODING 125
SWIDTH 602 0
DWIDTH 14 0
BBX 10 22 2 -4
BITMAP
F800
FC00
0E00
0E00
0E00
1E00
1C00
1C00
1C00
0E00
07C0
07C0
0E00
1C00
1C00
1C00
1E00
0E00
0E00
0E00
FC00
F800
ENDCHAR

STARTCHAR asciitilde
ENCODING 126
SWIDTH 602 0
DWIDTH 14 0
BBX 12 4 1 4
BITMAP
7830
7E30
C7E0
C1E0
ENDCHAR

STARTCHAR exclamdown
ENCODING 161
SWIDTH 602 0
DWIDTH 14 0
BBX 3 18 6 -5
BITMAP
E0
E0
00
00
00
60
60
60
60
60
E0
E0
E0
E0
E0
E0
E0
E0
ENDCHAR

STARTCHAR cent
ENCODING 162
SWIDTH 602 0
DWIDTH 14 0
BBX 11 17 1 0
BITMAP
0300
0300
1FE0
3FE0
7B20
F300
E300
E300
E300
E300
E300
7300
7B20
3FE0
1FE0
0300
0300
ENDCHAR

STARTCHAR sterling
ENCODING 163
SWIDTH 602 0
DWIDTH 14 0
BBX 9 17 3 0
BITMAP
0F80
1F80
3C00
3800
3800
3800
3800
FE00
FE00
3800
3800
3800
3800
3000
7000
FF80
FF80
ENDCHAR

STARTCHAR fraction
ENCODING 164
SWIDTH 602 0
DWIDTH 14 0
BBX 14 17 0 0
BITMAP
000C
0018
0038
0030
0060
00C0
00C0
0180
0300
0700
0600
0C00
1800
1800
3000
6000
E000
ENDCHAR

STARTCHAR yen
ENCODING 165
SWIDTH 602 0
DWIDTH 14 0
BBX 14 17 0 0
BITMAP
F01C
7838
3830
1C60
1EE0
0FC0
0F80
0700
3FE0
3FE0
0700
3FE0
3FE0
0700
0700
0700
0700
ENDCHAR

STARTCHAR florin
ENCODING 166
SWIDTH 602 0
DWIDTH 14 0
BBX 10 21 3 -4
BITMAP
03C0
07C0
0E00
0E00
1E00
1C00
1C00
7F00
7F00
1C00
1800
3800
3800
3800
3800
7000
7000
7000
7000
F000
F000
ENDCHAR

STARTCHAR section
ENCODING 167
SWIDTH 602 0
DWIDTH 14 0
BBX 10 21 2 -4
BITMAP
3F00
7F00
C100
C000
C000
F000
7C00
3F00
6780
C380
C180
C180
F300
7E00
1F00
0780
01C0
01C0
C3C0
FF80
FE00
ENDCHAR

STARTCHAR currency
ENCODING 168
SWIDTH 602 0
DWIDTH 14 0
BBX 12 12 1 3
BITMAP
4020
EF70
7FE0
30C0
6060
6060
6060
6060
30C0
7FE0
EF70
4020
ENDCHAR

STARTCHAR quotesingle
ENCODING 169
SWIDTH 602 0
DWIDTH 14 0
BBX 3 8 6 10
BITMAP
E0
E0
E0
E0
C0
C0
C0
C0
ENDCHAR

STARTCHAR quotedblleft
ENCODING 170
SWIDTH 602 0
DWIDTH 14 0
BBX 9 6 3 12
BITMAP
6180
C300
C300
E380
E380
E380
ENDCHAR

STARTCHAR guillemotleft
ENCODING 171
SWIDTH 602 0
DWIDTH 14 0
BBX 13 11 1 1
BITMAP
0410
0E38
1C70
38E0
79E0
F3C0
79E0
38E0
1C70
0E38
0410
ENDCHAR

STARTCHAR guilsinglleft
ENCODING 172
SWIDTH 602 0
DWIDTH 14 0
BBX 7 11 4 1
BITMAP
04
0E
1C
38
78
F0
78
38
1C
0E
04
ENDCHAR

STARTCHAR guilsinglright
ENCODING 173
SWIDTH 602 0
DWIDTH 14 0
BBX 7 11 4 1
BITMAP
40
E0
70
38
3C
1E
3C
38
70
E0
40
ENDCHAR

STARTCHAR fi
ENCODING 174
SWIDTH 602 0
DWIDTH 14 0
BBX 11 18 1 0
BITMAP
1E60
3E60
7060
7000
7000
FFE0
FFE0
70E0
70E0
70E0
70E0
70E0
70E0
70E0
70E0
70E0
70E0
70E0
ENDCHAR

STARTCHAR fl
ENCODING 175
SWIDTH 602 0
DWIDTH 14 0
BBX 11 18 2 0
BITMAP
1FE0
3FE0
70E0
70E0
70E0
FEE0
FEE0
70E0
70E0
70E0
70E0
70E0
70E0
70E0
70E0
70E0
70E0
70E0
ENDCHAR

STARTCHAR endash
ENCODING 177
SWIDTH 602 0
DWIDTH 14 0
BBX 11 1 2 6
BITMAP
FFE0
ENDCHAR

STARTCHAR dagger
ENCODING 178
SWIDTH 602 0
DWIDTH 14 0
BBX 9 21 3 -4
BITMAP
1C00
1C00
0C00
0C00
0C00
FF80
FF80
0C00
0C00
0C00
0C00
0C00
0C00
0C00
1C00
1C00
1C00
1C00
1C00
1C00
1C00
ENDCHAR

STARTCHAR daggerdbl
ENCODING 179
SWIDTH 602 0
DWIDTH 14 0
BBX 9 21 3 -4
BITMAP
1C00
1C00
0C00
0C00
0C00
FF80
FF80
0C00
0C00
0C00
0C00
0C00
0C00
FF80
FF80
0C00
0C00
0C00
1C00
1C00
1C00
ENDCHAR

STARTCHAR periodcentered
ENCODING 180
SWIDTH 602 0
DWIDTH 14 0
BBX 3 3 6 5
BITMAP
E0
E0
E0
ENDCHAR

STARTCHAR paragraph
ENCODING 182
SWIDTH 602 0
DWIDTH 14 0
BBX 9 21 2 -4
BITMAP
3F80
7D80
FD80
FD80
FD80
FD80
7D80
7D80
1D80
0D80
0D80
0D80
0D80
0D80
0D80
0D80
0D80
0D80
0D80
0D80
0D80
ENDCHAR

STARTCHAR bullet
ENCODING 183
SWIDTH 602 0
DWIDTH 14 0
BBX 9 9 3 1
BITMAP
FF80
FF80
FF80
FF80
FF80
FF80
FF80
FF80
FF80
ENDCHAR

STARTCHAR quotesinglbase
ENCODING 184
SWIDTH 602 0
DWIDTH 14 0
BBX 3 7 6 -4
BITMAP
E0
E0
E0
60
60
60
C0
ENDCHAR

STARTCHAR quotedblbase
ENCODING 185
SWIDTH 602 0
DWIDTH 14 0
BBX 9 7 3 -4
BITMAP
E380
E380
E380
6180
6180
6180
C300
ENDCHAR

STARTCHAR quotedblright
ENCODING 186
SWIDTH 602 0
DWIDTH 14 0
BBX 9 6 3 12
BITMAP
E380
E380
E380
6180
6180
C300
ENDCHAR

STARTCHAR guillemotright
ENCODING 187
SWIDTH 602 0
DWIDTH 14 0
BBX 13 11 1 1
BITMAP
4100
E380
71C0
38E0
3CF0
1E78
3CF0
38E0
71C0
E380
4100
ENDCHAR

STARTCHAR ellipsis
ENCODING 188
SWIDTH 602 0
DWIDTH 14 0
BBX 12 2 1 0
BITMAP
C630
C630
ENDCHAR

STARTCHAR perthousand
ENCODING 189
SWIDTH 602 0
DWIDTH 14 0
BBX 12 17 1 0
BITMAP
7300
5200
5200
5600
5400
7400
0800
0800
1800
1220
1770
2770
2770
6770
4770
4770
C220
ENDCHAR

STARTCHAR questiondown
ENCODING 191
SWIDTH 602 0
DWIDTH 14 0
BBX 11 18 1 -5
BITMAP
0380
0380
0000
0000
0000
0380
0380
0300
0700
1C00
3800
7000
E000
E060
E060
F060
7FE0
1FC0
ENDCHAR

STARTCHAR grave
ENCODING 193
SWIDTH 602 0
DWIDTH 14 0
BBX 6 3 4 15
BITMAP
F0
38
1C
ENDCHAR

STARTCHAR acute
ENCODING 194
SWIDTH 602 0
DWIDTH 14 0
BBX 6 3 4 15
BITMAP
3C
70
E0
ENDCHAR

STARTCHAR circumflex
ENCODING 195
SWIDTH 602 0
DWIDTH 14 0
BBX 7 4 4 14
BITMAP
38
7C
6C
EE
ENDCHAR

STARTCHAR tilde
ENCODING 196
SWIDTH 602 0
DWIDTH 14 0
BBX 7 2 4 15
BITMAP
FE
CE
ENDCHAR

STARTCHAR macron
ENCODING 197
SWIDTH 602 0
DWIDTH 14 0
BBX 7 2 4 15
BITMAP
FE
FE
ENDCHAR

STARTCHAR breve
ENCODING 198
SWIDTH 602 0
DWIDTH 14 0
BBX 8 2 3 15
BITMAP
FF
3C
ENDCHAR

STARTCHAR dotaccent
ENCODING 199
SWIDTH 602 0
DWIDTH 14 0
BBX 2 2 6 15
BITMAP
C0
C0
ENDCHAR

STARTCHAR dieresis
ENCODING 200
SWIDTH 602 0
DWIDTH 14 0
BBX 6 2 4 15
BITMAP
CC
CC
ENDCHAR

STARTCHAR ring
ENCODING 202
SWIDTH 602 0
DWIDTH 14 0
BBX 4 3 5 15
BITMAP
60
90
60
ENDCHAR

STARTCHAR cedilla
ENCODING 203
SWIDTH 602 0
DWIDTH 14 0
BBX 5 4 5 -5
BITMAP
60
E0
38
F8
ENDCHAR

STARTCHAR hungarumlaut
ENCODING 205
SWIDTH 602 0
DWIDTH 14 0
BBX 9 3 4 15
BITMAP
3B80
6600
CC00
ENDCHAR

STARTCHAR ogonek
ENCODING 206
SWIDTH 602 0
DWIDTH 14 0
BBX 4 4 5 -5
BITMAP
70
C0
C0
F0
ENDCHAR

STARTCHAR caron
ENCODING 207
SWIDTH 602 0
DWIDTH 14 0
BBX 7 4 4 14
BITMAP
EE
6C
7C
38
ENDCHAR

STARTCHAR emdash
ENCODING 208
SWIDTH 602 0
DWIDTH 14 0
BBX 13 1 1 6
BITMAP
FFF8
ENDCHAR

STARTCHAR AE
ENCODING 225
SWIDTH 602 0
DWIDTH 14 0
BBX 12 17 1 0
BITMAP
03F0
07F0
0780
0780
0F80
0F80
0D80
1DF0
19F0
1180
3180
2180
3F80
7F80
6180
41F0
C1F0
ENDCHAR

STARTCHAR ordfeminine
ENCODING 227
SWIDTH 602 0
DWIDTH 14 0
BBX 10 9 3 8
BITMAP
FF00
FF80
8380
0180
3F80
C180
C380
FFC0
7DC0
ENDCHAR

STARTCHAR Lslash
ENCODING 232
SWIDTH 602 0
DWIDTH 14 0
BBX 14 17 0 0
BITMAP
1C00
1C00
1C00
1C00
1D80
1F80
1F80
1F00
3C00
FC00
FC00
DC00
1C00
1C00
1C00
1FFC
1FFC
ENDCHAR

STARTCHAR Oslash
ENCODING 233
SWIDTH 602 0
DWIDTH 14 0
BBX 14 17 1 0
BITMAP
0F9C
3FF8
38F0
7070
60F0
E0F8
E1B8
E3B8
E338
E638
EE38
EC38
7830
7870
38E0
7FE0
EF80
ENDCHAR

STARTCHAR OE
ENCODING 234
SWIDTH 602 0
DWIDTH 14 0
BBX 12 17 2 0
BITMAP
1FF0
3FF0
7180
6180
C180
C180
C180
C1F0
C1F0
C180
C180
C180
C180
6180
7180
3FF0
1FF0
ENDCHAR

STARTCHAR ordmasculine
ENCODING 235
SWIDTH 602 0
DWIDTH 14 0
BBX 10 9 2 8
BITMAP
3F00
7F80
E1C0
C0C0
C0C0
C0C0
E1C0
7F80
3F00
ENDCHAR

STARTCHAR ae
ENCODING 241
SWIDTH 602 0
DWIDTH 14 0
BBX 12 13 1 0
BITMAP
3DC0
7FE0
4730
0630
0630
3FF0
7FF0
E600
C600
C600
CF10
7BF0
79E0
ENDCHAR

STARTCHAR dotlessi
ENCODING 245
SWIDTH 602 0
DWIDTH 14 0
BBX 8 13 2 0
BITMAP
FF
FF
07
07
07
07
07
07
07
07
07
07
07
ENDCHAR

STARTCHAR lslash
ENCODING 248
SWIDTH 602 0
DWIDTH 14 0
BBX 11 18 1 0
BITMAP
FF00
FF00
0700
0700
0720
0760
07E0
07C0
0F00
3F00
3700
2700
0700
0700
0700
0700
0700
0700
ENDCHAR

STARTCHAR oslash
ENCODING 249
SWIDTH 602 0
DWIDTH 14 0
BBX 13 13 1 0
BITMAP
0FB8
3FF0
78F0
70F0
E1F8
E3B8
E738
E638
EC38
7C70
78F0
7FE0
EF80
ENDCHAR

STARTCHAR oe
ENCODING 250
SWIDTH 602 0
DWIDTH 14 0
BBX 13 13 1 0
BITMAP
1CE0
7FF0
6798
C318
C318
C3F8
C3F8
C300
C300
C300
6788
7FF8
3CF0
ENDCHAR

STARTCHAR germandbls
ENCODING 251
SWIDTH 602 0
DWIDTH 14 0
BBX 12 18 1 0
BITMAP
3F00
7FC0
71C0
E1C0
E1C0
E380
E300
E700
E700
E780
E3C0
E1E0
E0F0
E070
E070
E470
E7E0
E7C0
ENDCHAR
ENDFONT
